<svg id="svg" version="1.1" xmlns="http://www.w3.org/2000/svg" xmlns:xlink="http://www.w3.org/1999/xlink" width="400" height="400" viewBox="0, 0, 400,400"><g id="svgg"><path id="path0" d="M166.316 110.900 L 166.200 114.200 162.600 114.400 L 159.000 114.600 158.800 118.200 L 158.600 121.800 155.000 122.000 L 151.400 122.200 151.400 125.600 L 151.400 129.000 155.100 129.115 L 158.800 129.230 158.800 125.615 L 158.800 122.000 162.400 122.000 L 166.000 122.000 166.000 118.185 L 166.000 114.370 169.700 114.485 L 173.400 114.600 173.515 118.300 L 173.630 122.000 177.215 122.000 L 180.800 122.000 180.800 129.200 L 180.800 136.400 184.400 136.400 L 188.000 136.400 188.000 129.216 L 188.000 122.031 184.500 121.916 L 181.000 121.800 180.800 118.200 L 180.600 114.600 177.100 114.484 L 173.600 114.369 173.600 110.984 L 173.600 107.600 170.016 107.600 L 166.432 107.600 166.316 110.900 M224.400 111.000 L 224.400 114.400 221.024 114.400 C 217.079 114.400,217.039 114.436,217.163 117.864 C 217.314 122.013,217.326 122.000,213.173 122.000 L 209.600 122.000 209.600 129.200 L 209.600 136.400 213.191 136.400 L 216.782 136.400 216.891 129.300 L 217.000 122.200 220.685 122.085 L 224.370 121.970 224.485 118.285 L 224.600 114.600 228.100 114.484 L 231.600 114.369 231.600 118.184 L 231.600 122.000 235.173 122.000 C 239.344 122.000,239.315 121.968,239.156 126.302 L 239.058 129.000 242.729 129.115 L 246.400 129.230 246.400 125.630 L 246.400 122.030 242.700 121.915 L 239.000 121.800 238.885 118.100 L 238.770 114.400 235.185 114.400 L 231.600 114.400 231.600 111.000 L 231.600 107.600 228.000 107.600 L 224.400 107.600 224.400 111.000 M188.400 144.169 L 188.400 151.569 191.900 151.684 L 195.400 151.800 195.400 155.200 L 195.400 158.600 191.900 158.716 L 188.400 158.831 188.394 165.716 C 188.386 174.088,188.605 173.665,184.366 173.517 L 181.000 173.400 180.884 169.900 L 180.769 166.400 173.384 166.400 L 166.000 166.400 166.000 169.991 L 166.000 173.582 173.500 173.691 L 181.000 173.800 181.000 177.400 L 181.000 181.000 158.915 181.103 L 136.830 181.207 136.715 177.503 L 136.600 173.800 129.300 173.691 L 122.000 173.582 122.000 166.406 L 122.000 159.230 125.700 159.115 C 127.735 159.052,134.395 159.050,140.500 159.112 L 151.600 159.224 151.600 162.612 L 151.600 166.000 158.800 166.000 L 166.000 166.000 166.000 162.400 L 166.000 158.800 158.800 158.800 L 151.600 158.800 151.600 155.200 L 151.600 151.600 141.033 151.600 C 128.094 151.600,129.200 151.978,129.200 147.554 L 129.200 143.994 103.500 144.097 L 77.800 144.200 77.600 147.800 L 77.400 151.400 70.225 151.600 L 63.051 151.800 63.025 155.200 L 63.000 158.600 59.500 158.716 L 56.000 158.831 56.000 177.200 L 56.000 195.569 59.500 195.684 L 63.000 195.800 63.000 199.300 L 63.000 202.801 66.457 202.800 C 70.515 202.800,70.400 202.670,70.400 207.233 L 70.400 210.400 73.984 210.400 L 77.569 210.400 77.684 213.900 L 77.800 217.400 85.000 217.600 L 92.200 217.800 92.316 221.300 L 92.431 224.800 95.792 224.800 C 99.760 224.800,99.675 224.711,99.745 228.935 L 99.800 232.200 107.100 232.309 L 114.400 232.418 114.462 234.909 C 114.496 236.279,114.549 240.640,114.579 244.600 C 114.609 248.560,114.671 252.385,114.717 253.100 L 114.800 254.400 118.200 254.400 C 120.643 254.400,121.606 254.541,121.620 254.900 C 121.631 255.175,121.676 258.460,121.720 262.200 L 121.800 269.000 125.180 269.117 C 129.496 269.267,129.600 269.365,129.600 273.249 L 129.600 276.400 151.400 276.400 L 173.200 276.400 173.200 273.280 C 173.200 269.333,173.339 269.200,177.471 269.200 L 180.782 269.200 180.891 261.900 L 181.000 254.600 184.500 254.484 L 188.000 254.369 188.000 250.784 L 188.000 247.200 180.800 247.200 L 173.600 247.200 173.600 254.600 L 173.600 262.000 169.794 262.000 L 165.987 262.000 166.094 251.100 L 166.200 240.200 169.900 240.085 L 173.600 239.970 173.600 236.400 L 173.600 232.830 177.300 232.715 L 181.000 232.600 181.115 228.900 L 181.230 225.200 184.615 225.200 L 188.000 225.200 188.000 236.000 L 188.000 246.800 191.167 246.800 C 195.720 246.800,195.600 246.696,195.600 250.659 L 195.600 254.032 198.900 253.916 L 202.200 253.800 202.318 250.612 C 202.459 246.823,202.469 246.814,206.500 246.806 L 209.600 246.800 209.600 236.000 L 209.600 225.200 213.185 225.200 L 216.770 225.200 216.885 228.900 L 217.000 232.600 220.485 232.715 L 223.969 232.831 224.085 236.315 L 224.200 239.800 227.900 239.915 L 231.600 240.030 231.600 251.015 L 231.600 262.000 227.800 262.000 L 224.000 262.000 224.000 254.591 L 224.000 247.182 216.900 247.291 L 209.800 247.400 209.684 250.900 L 209.569 254.400 213.142 254.400 C 217.525 254.400,217.248 253.852,217.178 262.375 L 217.124 269.000 220.449 269.118 C 224.393 269.257,224.386 269.250,224.394 273.300 L 224.400 276.400 246.384 276.400 L 268.369 276.400 268.484 272.900 L 268.600 269.400 272.300 269.285 L 276.000 269.170 276.000 261.785 L 276.000 254.400 279.594 254.400 L 283.187 254.400 283.294 243.500 L 283.400 232.600 290.685 232.491 L 297.970 232.382 298.085 228.691 L 298.200 225.000 301.685 224.885 L 305.169 224.769 305.285 221.285 L 305.400 217.800 312.700 217.691 L 320.000 217.582 320.000 213.991 L 320.000 210.400 323.785 210.400 L 327.570 210.400 327.685 206.700 L 327.800 203.000 331.300 202.884 L 334.800 202.769 334.800 199.184 L 334.800 195.600 338.400 195.600 L 342.000 195.600 342.000 177.200 L 342.000 158.800 338.400 158.800 L 334.800 158.800 334.800 155.209 L 334.800 151.618 327.500 151.509 L 320.200 151.400 320.085 147.697 L 319.970 143.994 294.285 144.097 L 268.600 144.200 268.400 147.800 L 268.200 151.400 257.300 151.506 L 246.400 151.613 246.400 155.197 L 246.400 158.782 239.100 158.891 L 231.800 159.000 231.684 162.500 L 231.569 166.000 238.784 166.000 L 246.000 166.000 246.000 162.612 L 246.000 159.224 257.100 159.112 C 263.205 159.050,269.865 159.058,271.900 159.128 L 275.600 159.257 275.600 166.428 L 275.600 173.600 268.400 173.600 L 261.200 173.600 261.200 177.403 L 261.200 181.207 239.100 181.103 L 217.000 181.000 216.885 177.300 L 216.770 173.600 224.185 173.600 L 231.600 173.600 231.600 169.991 L 231.600 166.382 224.329 166.491 L 217.059 166.600 217.157 169.298 C 217.314 173.631,217.343 173.600,213.182 173.600 L 209.618 173.600 209.509 166.300 L 209.400 159.000 205.900 158.884 L 202.400 158.769 202.400 155.200 L 202.400 151.631 205.900 151.516 L 209.400 151.400 209.400 144.200 L 209.400 137.000 205.900 136.884 L 202.400 136.769 202.394 143.684 C 202.386 152.011,202.544 151.670,198.765 151.519 L 195.800 151.400 195.600 144.200 L 195.400 137.000 191.900 136.884 L 188.400 136.769 188.400 144.169 M100.000 158.800 L 100.000 166.000 96.200 166.000 L 92.400 166.000 92.400 159.067 C 92.400 150.935,92.038 151.600,96.467 151.600 L 100.000 151.600 100.000 158.800 M114.710 158.585 C 114.846 166.945,115.197 166.226,111.052 166.071 L 107.600 165.941 107.600 158.755 L 107.600 151.569 111.100 151.684 L 114.600 151.800 114.710 158.585 M290.309 158.900 L 290.418 166.000 286.809 166.000 L 283.200 166.000 283.200 158.784 L 283.200 151.569 286.700 151.684 L 290.200 151.800 290.309 158.900 M305.110 158.585 C 305.246 166.964,305.627 166.225,301.252 166.072 L 297.600 165.943 297.600 158.757 L 297.600 151.570 301.300 151.685 L 305.000 151.800 305.110 158.585 M70.400 162.400 L 70.400 166.000 66.800 166.000 L 63.200 166.000 63.200 162.616 L 63.200 159.231 66.700 159.098 C 68.625 159.025,70.245 158.927,70.300 158.882 C 70.355 158.837,70.400 160.420,70.400 162.400 M85.200 166.400 L 85.200 173.600 77.800 173.600 L 70.400 173.600 70.400 177.400 L 70.400 181.200 66.800 181.200 L 63.200 181.200 63.200 177.400 L 63.200 173.600 66.800 173.600 L 70.400 173.600 70.400 170.280 C 70.400 166.108,70.508 166.000,74.680 166.000 L 78.000 166.000 78.000 162.600 L 78.000 159.200 81.600 159.200 L 85.200 159.200 85.200 166.400 M319.600 162.585 L 319.600 165.970 323.300 166.085 L 327.000 166.200 327.115 169.900 L 327.230 173.600 330.815 173.600 C 332.926 173.600,334.408 173.765,334.419 174.000 C 334.430 174.220,334.447 175.885,334.457 177.700 L 334.476 181.000 330.938 181.000 L 327.400 181.000 327.285 177.309 L 327.170 173.618 319.964 173.509 L 312.758 173.400 312.769 166.500 C 312.775 162.705,312.784 159.510,312.790 159.400 C 312.795 159.290,314.330 159.200,316.200 159.200 L 319.600 159.200 319.600 162.585 M334.482 162.600 L 334.482 165.800 330.841 165.915 L 327.200 166.030 327.200 162.600 L 327.200 159.170 330.841 159.285 L 334.482 159.400 334.482 162.600 M114.400 177.400 L 114.400 181.200 107.200 181.200 L 100.000 181.200 100.000 184.800 L 100.000 188.400 92.600 188.400 L 85.200 188.400 85.200 184.800 L 85.200 181.200 88.773 181.200 C 92.916 181.200,92.893 181.223,92.796 177.098 C 92.764 175.724,92.751 174.375,92.768 174.100 C 92.793 173.713,95.243 173.600,103.600 173.600 L 114.400 173.600 114.400 177.400 M195.116 177.100 L 195.000 180.600 191.600 180.600 L 188.200 180.600 188.081 177.637 C 187.915 173.485,187.809 173.600,191.803 173.600 L 195.231 173.600 195.116 177.100 M209.600 177.216 L 209.600 180.831 206.100 180.716 L 202.600 180.600 202.481 177.637 C 202.315 173.487,202.211 173.600,206.187 173.600 L 209.600 173.600 209.600 177.216 M305.115 177.500 L 305.230 181.200 308.748 181.200 C 313.002 181.200,312.627 180.821,312.471 184.965 L 312.341 188.400 304.971 188.400 L 297.600 188.400 297.600 184.800 L 297.600 181.200 290.400 181.200 L 283.200 181.200 283.200 184.784 L 283.200 188.369 286.700 188.484 L 290.200 188.600 290.315 192.091 L 290.431 195.582 297.715 195.691 L 305.000 195.800 305.000 199.400 L 305.000 203.000 294.085 203.106 L 283.170 203.213 283.285 206.906 L 283.400 210.600 286.800 210.800 L 290.200 211.000 290.200 214.400 L 290.200 217.800 280.200 217.894 C 267.356 218.015,268.459 218.349,268.316 214.296 L 268.200 211.000 261.000 210.800 L 253.800 210.600 253.685 206.900 L 253.570 203.200 242.585 203.200 L 231.600 203.200 231.600 199.400 L 231.600 195.600 224.184 195.600 L 216.769 195.600 216.884 192.100 L 217.000 188.600 239.100 188.497 L 261.200 188.393 261.200 184.797 L 261.200 181.200 272.200 181.200 L 283.200 181.200 283.200 177.394 L 283.200 173.587 294.100 173.694 L 305.000 173.800 305.115 177.500 M136.400 184.784 L 136.400 188.368 133.100 188.484 L 129.800 188.600 129.684 192.116 L 129.568 195.632 133.084 195.516 L 136.600 195.400 136.716 191.897 L 136.831 188.393 158.916 188.497 L 181.000 188.600 181.115 192.091 L 181.231 195.582 173.715 195.691 L 166.200 195.800 166.085 199.494 L 165.970 203.187 155.085 203.294 L 144.200 203.400 144.085 207.100 L 143.970 210.800 136.785 210.800 L 129.600 210.800 129.600 214.192 C 129.600 218.370,130.691 218.028,117.800 217.899 L 107.800 217.800 107.685 214.316 L 107.569 210.832 111.085 210.716 L 114.600 210.600 114.715 206.909 L 114.830 203.218 122.115 203.109 L 129.400 203.000 129.515 199.291 L 129.630 195.582 122.115 195.691 L 114.600 195.800 114.485 199.506 L 114.370 203.213 103.547 203.106 L 92.723 203.000 92.743 199.700 C 92.753 197.885,92.770 196.220,92.781 196.000 C 92.793 195.748,95.541 195.600,100.184 195.600 L 107.569 195.600 107.684 192.100 L 107.800 188.600 111.200 188.400 L 114.600 188.200 114.716 184.700 L 114.831 181.200 125.616 181.200 L 136.400 181.200 136.400 184.784 M78.000 192.015 L 78.000 195.630 74.300 195.515 L 70.600 195.400 70.479 192.812 C 70.270 188.360,70.235 188.400,74.408 188.400 L 78.000 188.400 78.000 192.015 M261.200 191.984 L 261.200 195.600 264.800 195.600 L 268.400 195.600 268.400 199.400 L 268.400 203.200 275.815 203.200 L 283.230 203.200 283.115 199.500 L 283.000 195.800 275.715 195.691 L 268.431 195.582 268.315 192.091 L 268.200 188.600 264.700 188.484 L 261.200 188.369 261.200 191.984 M327.116 192.115 L 327.232 195.630 323.516 195.515 L 319.800 195.400 319.681 192.437 C 319.512 188.227,319.394 188.349,323.493 188.484 L 327.000 188.600 327.116 192.115 M85.000 207.000 L 85.000 210.600 81.600 210.600 L 78.200 210.600 78.085 206.884 L 77.970 203.168 81.485 203.284 L 85.000 203.400 85.000 207.000 M188.000 210.600 L 188.000 218.000 184.600 218.000 L 181.200 218.000 181.200 221.600 L 181.200 225.200 177.400 225.200 L 173.600 225.200 173.600 229.009 L 173.600 232.818 166.300 232.709 L 159.000 232.600 159.000 225.400 L 159.000 218.200 162.500 218.084 L 166.000 217.969 166.000 214.393 L 166.000 210.818 173.500 210.709 L 181.000 210.600 181.115 206.900 L 181.230 203.200 184.615 203.200 L 188.000 203.200 188.000 210.600 M216.885 206.900 L 217.000 210.600 220.600 210.679 C 222.580 210.723,225.858 210.768,227.884 210.779 L 231.569 210.800 231.684 214.300 L 231.800 217.800 235.200 217.853 L 238.600 217.907 238.600 225.253 L 238.600 232.600 231.400 232.600 L 224.200 232.600 224.085 228.900 L 223.970 225.200 220.385 225.200 L 216.800 225.200 216.800 221.616 L 216.800 218.031 213.300 217.916 L 209.800 217.800 209.691 210.500 L 209.582 203.200 213.176 203.200 L 216.770 203.200 216.885 206.900 M319.600 206.600 C 319.600 208.470,319.600 210.135,319.600 210.300 C 319.600 210.465,318.054 210.600,316.164 210.600 L 312.727 210.600 312.745 207.100 C 312.755 205.175,312.772 203.510,312.782 203.400 C 312.792 203.290,314.330 203.200,316.200 203.200 L 319.600 203.200 319.600 206.600 M99.916 214.300 L 99.800 217.800 97.008 217.920 C 92.403 218.119,92.400 218.116,92.400 214.459 C 92.400 210.615,92.193 210.800,96.482 210.800 L 100.031 210.800 99.916 214.300 M305.116 214.300 L 305.000 217.800 302.208 217.920 C 297.558 218.121,297.600 218.155,297.600 214.192 L 297.600 210.800 301.416 210.800 L 305.231 210.800 305.116 214.300 M151.515 221.586 L 151.630 225.218 144.115 225.109 L 136.600 225.000 136.600 221.600 L 136.600 218.200 140.200 218.000 C 142.180 217.890,145.510 217.835,147.600 217.877 L 151.400 217.954 151.515 221.586 M261.000 221.467 L 261.000 225.000 253.600 225.000 L 246.200 225.000 246.083 221.634 C 245.938 217.491,245.326 217.787,253.862 217.867 L 261.000 217.934 261.000 221.467 M201.909 225.100 L 201.800 232.200 198.800 232.200 L 195.800 232.200 195.691 225.100 L 195.582 218.000 198.800 218.000 L 202.018 218.000 201.909 225.100 M129.400 229.000 L 129.400 232.600 125.800 232.600 L 122.200 232.600 122.085 228.885 L 121.970 225.170 125.685 225.285 L 129.400 225.400 129.400 229.000 M275.515 228.900 L 275.400 232.600 272.000 232.600 L 268.600 232.600 268.485 228.900 L 268.370 225.200 272.000 225.200 L 275.630 225.200 275.515 228.900 M151.600 236.400 L 151.600 240.000 155.157 240.000 C 159.566 240.000,159.200 239.005,159.200 251.000 C 159.200 263.387,160.189 262.000,151.357 262.000 L 144.000 262.000 144.000 258.400 L 144.000 254.800 140.175 254.800 L 136.351 254.800 136.436 258.300 L 136.521 261.800 133.060 261.916 L 129.600 262.031 129.600 258.416 L 129.600 254.800 133.000 254.800 L 136.400 254.800 136.400 251.400 C 136.400 249.530,136.445 247.865,136.500 247.700 C 136.555 247.535,133.360 247.310,129.400 247.200 L 122.200 247.000 122.200 243.600 L 122.200 240.200 129.300 240.091 L 136.400 239.982 136.400 236.657 C 136.400 232.462,135.710 232.800,144.267 232.800 L 151.600 232.800 151.600 236.400 M261.200 236.400 L 261.200 240.000 268.400 240.000 L 275.600 240.000 275.600 243.600 L 275.600 247.200 268.400 247.200 L 261.200 247.200 261.200 250.984 L 261.200 254.769 264.700 254.884 L 268.200 255.000 268.316 258.500 L 268.431 262.000 264.816 262.000 L 261.200 262.000 261.200 258.400 L 261.200 254.800 257.400 254.800 L 253.600 254.800 253.600 258.400 L 253.600 262.000 246.200 262.000 L 238.800 262.000 238.800 251.000 L 238.800 240.000 242.400 240.000 L 246.000 240.000 246.000 236.400 L 246.000 232.800 253.600 232.800 L 261.200 232.800 261.200 236.400 M202.000 243.200 L 202.000 247.200 198.800 247.200 L 195.600 247.200 195.600 243.200 L 195.600 239.200 198.800 239.200 L 202.000 239.200 202.000 243.200 M144.267 240.267 C 144.120 240.413,144.000 243.750,144.000 247.682 L 144.000 254.830 147.700 254.715 L 151.400 254.600 151.509 247.300 L 151.618 240.000 148.076 240.000 C 146.127 240.000,144.413 240.120,144.267 240.267 M246.091 247.300 L 246.200 254.600 249.900 254.715 L 253.600 254.830 253.600 247.415 L 253.600 240.000 249.791 240.000 L 245.982 240.000 246.091 247.300 M166.000 265.800 L 166.000 269.600 162.643 269.600 C 158.722 269.600,158.800 269.685,158.800 265.434 C 158.800 261.856,158.638 262.000,162.667 262.000 L 166.000 262.000 166.000 265.800 M238.715 265.900 L 238.830 269.600 235.215 269.600 L 231.600 269.600 231.600 265.784 L 231.600 261.969 235.100 262.084 L 238.600 262.200 238.715 265.900 " stroke="none" fill="#241515" fill-rule="evenodd"></path><path id="path1" d="M0.000 200.000 L 0.000 400.000 200.000 400.000 L 400.000 400.000 400.000 200.000 L 400.000 0.000 200.000 0.000 L 0.000 0.000 0.000 200.000 M173.600 110.585 L 173.600 113.970 177.300 114.085 L 181.000 114.200 181.200 117.800 L 181.400 121.400 184.800 121.600 L 188.200 121.800 188.309 129.100 L 188.418 136.400 192.009 136.400 L 195.600 136.400 195.600 143.600 L 195.600 150.800 198.800 150.800 L 202.000 150.800 202.000 143.600 L 202.000 136.400 205.800 136.400 L 209.600 136.400 209.600 129.000 L 209.600 121.600 213.000 121.600 L 216.400 121.600 216.400 118.280 C 216.400 114.108,216.508 114.000,220.680 114.000 L 224.000 114.000 224.000 110.600 L 224.000 107.200 227.800 107.200 L 231.600 107.200 231.600 108.744 C 231.600 109.593,231.714 111.117,231.852 112.129 L 232.105 113.970 235.552 114.085 L 239.000 114.200 239.200 117.800 L 239.400 121.400 243.000 121.600 L 246.600 121.800 246.600 125.600 L 246.600 129.400 242.600 129.400 L 238.600 129.400 238.484 125.900 L 238.369 122.400 234.999 122.400 L 231.630 122.400 231.515 118.700 L 231.400 115.000 228.200 115.000 L 225.000 115.000 224.800 118.600 L 224.600 122.200 220.900 122.315 L 217.200 122.430 217.200 129.600 L 217.200 136.770 213.500 136.885 L 209.800 137.000 209.691 144.500 L 209.582 152.000 206.191 152.000 L 202.800 152.000 202.800 155.200 L 202.800 158.400 206.191 158.400 L 209.582 158.400 209.691 165.700 L 209.800 173.000 213.084 173.116 L 216.368 173.232 216.484 169.716 L 216.600 166.200 224.100 166.091 L 231.600 165.982 231.600 162.191 L 231.600 158.400 238.800 158.400 L 246.000 158.400 246.000 154.843 C 246.000 150.643,245.899 150.732,250.591 150.805 C 252.356 150.832,256.988 150.842,260.884 150.827 L 267.969 150.800 268.084 147.300 L 268.200 143.800 293.975 143.697 C 314.329 143.616,319.816 143.700,320.068 144.097 C 320.244 144.374,320.391 145.995,320.394 147.700 L 320.400 150.800 323.900 150.827 C 325.825 150.842,328.898 150.831,330.728 150.802 C 335.073 150.733,335.200 150.853,335.200 155.049 L 335.200 158.400 338.600 158.400 L 342.000 158.400 342.000 177.200 L 342.000 196.000 338.600 196.000 L 335.200 196.000 335.200 199.557 C 335.200 203.729,335.341 203.600,330.767 203.600 L 327.600 203.600 327.600 207.200 L 327.600 210.800 324.016 210.800 L 320.431 210.800 320.316 214.300 L 320.200 217.800 312.900 217.909 L 305.600 218.018 305.600 221.566 C 305.600 225.708,305.713 225.600,301.383 225.600 L 298.431 225.600 298.316 229.100 L 298.200 232.600 291.000 232.800 L 283.800 233.000 283.694 243.900 L 283.587 254.800 279.994 254.800 L 276.400 254.800 276.394 261.700 C 276.387 269.995,276.617 269.536,272.387 269.682 L 269.000 269.800 268.800 273.200 L 268.600 276.600 246.300 276.703 L 224.000 276.807 224.000 273.218 L 224.000 269.630 220.300 269.515 L 216.600 269.400 216.491 262.100 L 216.382 254.800 212.991 254.800 L 209.600 254.800 209.600 251.267 C 209.600 247.006,209.949 247.373,206.051 247.530 L 202.831 247.660 202.716 250.930 L 202.600 254.200 199.000 254.200 L 195.400 254.200 195.200 250.895 C 195.090 249.078,194.865 247.593,194.700 247.595 C 194.535 247.598,193.057 247.600,191.416 247.600 L 188.431 247.600 188.316 251.100 L 188.200 254.600 184.800 254.800 L 181.400 255.000 181.291 262.285 L 181.182 269.570 177.491 269.685 L 173.800 269.800 173.684 273.303 L 173.569 276.807 151.284 276.703 L 129.000 276.600 128.923 273.600 C 128.881 271.950,128.836 270.375,128.823 270.100 C 128.806 269.739,127.803 269.600,125.209 269.600 L 121.618 269.600 121.509 262.300 L 121.400 255.000 117.900 254.884 L 114.400 254.769 114.317 253.284 C 114.271 252.468,114.209 248.560,114.179 244.600 C 114.149 240.640,114.096 236.365,114.062 235.100 L 114.000 232.800 106.815 232.800 L 99.630 232.800 99.515 229.132 L 99.400 225.464 96.500 225.559 C 91.938 225.708,92.000 225.763,92.000 221.573 L 92.000 218.000 84.816 218.000 L 77.631 218.000 77.516 214.500 L 77.400 211.000 73.700 210.885 L 70.000 210.770 70.000 207.185 L 70.000 203.600 66.974 203.600 C 62.550 203.600,62.400 203.462,62.400 199.402 L 62.400 196.032 59.100 195.916 L 55.800 195.800 55.800 177.200 L 55.800 158.600 59.100 158.484 L 62.400 158.368 62.400 154.998 C 62.400 150.672,62.164 150.791,70.670 150.852 L 77.400 150.900 77.515 147.247 L 77.630 143.594 103.515 143.697 L 129.400 143.800 129.516 147.300 L 129.631 150.800 136.716 150.827 C 140.612 150.842,145.244 150.832,147.009 150.805 C 151.701 150.732,151.600 150.643,151.600 154.843 L 151.600 158.400 158.757 158.400 C 167.020 158.400,166.400 158.040,166.400 162.833 L 166.400 166.000 173.784 166.000 L 181.169 166.000 181.284 169.500 L 181.400 173.000 184.700 173.116 L 188.000 173.232 188.000 165.816 L 188.000 158.400 191.600 158.400 L 195.200 158.400 195.200 155.216 L 195.200 152.031 191.700 151.916 L 188.200 151.800 188.091 144.300 L 187.982 136.800 184.191 136.800 L 180.400 136.800 180.400 129.616 L 180.400 122.431 176.900 122.316 L 173.400 122.200 173.200 118.600 L 173.000 115.000 169.715 114.884 L 166.430 114.768 166.315 118.484 L 166.200 122.200 162.715 122.315 L 159.231 122.431 159.115 125.915 L 159.000 129.400 155.000 129.400 L 151.000 129.400 151.000 125.600 L 151.000 121.800 154.700 121.685 L 158.400 121.570 158.400 118.028 C 158.400 113.873,158.260 114.000,162.833 114.000 L 166.000 114.000 166.000 110.600 L 166.000 107.200 169.800 107.200 L 173.600 107.200 173.600 110.585 " stroke="none" fill="#ffffff" fill-rule="evenodd"></path><path id="path2" d="M92.667 151.867 C 92.520 152.013,92.400 155.253,92.400 159.067 L 92.400 166.000 96.200 166.000 L 100.000 166.000 100.000 158.800 L 100.000 151.600 96.467 151.600 C 94.523 151.600,92.813 151.720,92.667 151.867 M107.600 158.755 L 107.600 165.941 111.052 166.071 C 115.197 166.226,114.846 166.945,114.710 158.585 L 114.600 151.800 111.100 151.684 L 107.600 151.569 107.600 158.755 M283.200 158.784 L 283.200 166.000 286.809 166.000 L 290.418 166.000 290.309 158.900 L 290.200 151.800 286.700 151.684 L 283.200 151.569 283.200 158.784 M297.600 158.757 L 297.600 165.943 301.252 166.072 C 305.627 166.225,305.246 166.964,305.110 158.585 L 305.000 151.800 301.300 151.685 L 297.600 151.570 297.600 158.757 M181.115 206.900 L 181.000 210.600 173.500 210.709 L 166.000 210.818 166.000 214.393 L 166.000 217.969 162.500 218.084 L 159.000 218.200 159.000 225.400 L 159.000 232.600 166.300 232.709 L 173.600 232.818 173.600 236.394 L 173.600 239.970 169.900 240.085 L 166.200 240.200 166.094 251.085 L 165.987 261.969 162.494 262.085 L 159.000 262.200 158.880 264.992 C 158.679 269.642,158.645 269.600,162.608 269.600 L 166.000 269.600 166.000 265.800 L 166.000 262.000 169.800 262.000 L 173.600 262.000 173.600 254.600 L 173.600 247.200 180.800 247.200 L 188.000 247.200 188.000 236.200 L 188.000 225.200 184.600 225.200 L 181.200 225.200 181.200 221.600 L 181.200 218.000 184.600 218.000 L 188.000 218.000 188.000 210.600 L 188.000 203.200 184.615 203.200 L 181.230 203.200 181.115 206.900 M209.691 210.500 L 209.800 217.800 213.300 217.916 L 216.800 218.031 216.800 221.616 L 216.800 225.200 213.200 225.200 L 209.600 225.200 209.600 236.200 L 209.600 247.200 216.800 247.200 L 224.000 247.200 224.000 254.600 L 224.000 262.000 227.800 262.000 L 231.600 262.000 231.600 265.800 L 231.600 269.600 235.215 269.600 L 238.830 269.600 238.715 265.900 L 238.600 262.200 235.100 262.084 L 231.600 261.969 231.600 250.999 L 231.600 240.030 227.900 239.915 L 224.200 239.800 224.085 236.315 L 223.969 232.831 220.485 232.715 L 217.000 232.600 216.885 228.900 L 216.770 225.200 220.370 225.200 L 223.970 225.200 224.085 228.900 L 224.200 232.600 231.400 232.600 L 238.600 232.600 238.600 225.253 L 238.600 217.907 235.200 217.853 L 231.800 217.800 231.684 214.300 L 231.569 210.800 227.884 210.779 C 225.858 210.768,222.580 210.723,220.600 210.679 L 217.000 210.600 216.885 206.900 L 216.770 203.200 213.176 203.200 L 209.582 203.200 209.691 210.500 M140.200 218.000 L 136.600 218.200 136.600 221.600 L 136.600 225.000 144.115 225.109 L 151.630 225.218 151.515 221.586 L 151.400 217.954 147.600 217.877 C 145.510 217.835,142.180 217.890,140.200 218.000 M246.344 218.034 C 246.136 218.163,246.018 219.783,246.083 221.634 L 246.200 225.000 253.600 225.000 L 261.000 225.000 261.000 221.467 L 261.000 217.934 253.862 217.867 C 249.936 217.830,246.553 217.905,246.344 218.034 M122.085 228.885 L 122.200 232.600 125.800 232.600 L 129.400 232.600 129.400 229.000 L 129.400 225.400 125.685 225.285 L 121.970 225.170 122.085 228.885 M181.115 228.900 L 181.000 232.600 177.300 232.715 L 173.600 232.830 173.600 229.015 L 173.600 225.200 177.415 225.200 L 181.230 225.200 181.115 228.900 M268.485 228.900 L 268.600 232.600 272.000 232.600 L 275.400 232.600 275.515 228.900 L 275.630 225.200 272.000 225.200 L 268.370 225.200 268.485 228.900 M136.581 233.306 C 136.474 233.584,136.435 238.489,136.493 244.206 L 136.600 254.600 140.300 254.715 L 144.000 254.830 144.000 258.415 L 144.000 262.000 151.357 262.000 C 160.189 262.000,159.200 263.387,159.200 251.000 C 159.200 239.005,159.566 240.000,155.157 240.000 L 151.600 240.000 151.600 236.400 L 151.600 232.800 144.187 232.800 C 138.580 232.800,136.728 232.923,136.581 233.306 M246.000 236.400 L 246.000 240.000 242.400 240.000 L 238.800 240.000 238.800 251.000 L 238.800 262.000 246.200 262.000 L 253.600 262.000 253.600 258.400 L 253.600 254.800 257.400 254.800 L 261.200 254.800 261.200 243.800 L 261.200 232.800 253.600 232.800 L 246.000 232.800 246.000 236.400 M151.509 247.300 L 151.400 254.600 147.700 254.715 L 144.000 254.830 144.000 247.682 C 144.000 239.307,143.632 240.000,148.076 240.000 L 151.618 240.000 151.509 247.300 M253.600 247.415 L 253.600 254.830 249.900 254.715 L 246.200 254.600 246.091 247.300 L 245.982 240.000 249.791 240.000 L 253.600 240.000 253.600 247.415 " stroke="none" fill="#ba4caa" fill-rule="evenodd"></path><path id="path3" d="M125.700 159.115 L 122.000 159.230 122.000 166.406 L 122.000 173.582 129.300 173.691 L 136.600 173.800 136.715 177.503 L 136.830 181.207 158.915 181.103 L 181.000 181.000 181.000 177.400 L 181.000 173.800 173.500 173.691 L 166.000 173.582 166.000 169.791 L 166.000 166.000 158.800 166.000 L 151.600 166.000 151.600 162.612 L 151.600 159.224 140.500 159.112 C 134.395 159.050,127.735 159.052,125.700 159.115 M257.100 159.104 L 246.000 159.213 246.000 162.606 L 246.000 166.000 238.800 166.000 L 231.600 166.000 231.600 169.800 L 231.600 173.600 224.185 173.600 L 216.770 173.600 216.885 177.300 L 217.000 181.000 239.100 181.103 L 261.200 181.207 261.200 184.800 L 261.200 188.393 239.100 188.497 L 217.000 188.600 216.884 192.100 L 216.769 195.600 224.184 195.600 L 231.600 195.600 231.600 199.400 L 231.600 203.200 242.585 203.200 L 253.570 203.200 253.685 206.900 L 253.800 210.600 261.000 210.800 L 268.200 211.000 268.316 214.296 C 268.459 218.349,267.356 218.015,280.200 217.894 L 290.200 217.800 290.200 214.400 L 290.200 211.000 286.800 210.800 L 283.400 210.600 283.285 206.906 L 283.170 203.213 294.085 203.106 L 305.000 203.000 305.000 199.400 L 305.000 195.800 297.715 195.691 L 290.431 195.582 290.315 192.091 L 290.200 188.600 286.700 188.484 L 283.200 188.369 283.200 184.784 L 283.200 181.200 290.400 181.200 L 297.600 181.200 297.600 184.800 L 297.600 188.400 304.971 188.400 L 312.341 188.400 312.471 184.965 C 312.627 180.821,313.002 181.200,308.748 181.200 L 305.230 181.200 305.115 177.500 L 305.000 173.800 294.100 173.694 L 283.200 173.587 283.200 177.394 L 283.200 181.200 272.200 181.200 L 261.200 181.200 261.200 177.400 L 261.200 173.600 268.400 173.600 L 275.600 173.600 275.600 166.400 L 275.600 159.200 272.433 159.200 C 270.691 159.200,269.026 159.154,268.733 159.098 C 268.440 159.042,263.205 159.044,257.100 159.104 M78.000 162.600 L 78.000 166.000 74.680 166.000 C 70.508 166.000,70.400 166.108,70.400 170.280 L 70.400 173.600 77.800 173.600 L 85.200 173.600 85.200 166.400 L 85.200 159.200 81.600 159.200 L 78.000 159.200 78.000 162.600 M312.790 159.400 C 312.784 159.510,312.775 162.705,312.769 166.500 L 312.758 173.400 319.994 173.509 L 327.230 173.618 327.115 169.909 L 327.000 166.200 323.300 166.085 L 319.600 165.970 319.600 162.585 L 319.600 159.200 316.200 159.200 C 314.330 159.200,312.795 159.290,312.790 159.400 M92.768 174.100 C 92.751 174.375,92.764 175.724,92.796 177.098 C 92.893 181.223,92.916 181.200,88.773 181.200 L 85.200 181.200 85.200 184.800 L 85.200 188.400 92.600 188.400 L 100.000 188.400 100.000 184.800 L 100.000 181.200 107.200 181.200 L 114.400 181.200 114.400 177.400 L 114.400 173.600 103.600 173.600 C 95.243 173.600,92.793 173.713,92.768 174.100 M114.716 184.700 L 114.600 188.200 111.200 188.400 L 107.800 188.600 107.684 192.100 L 107.569 195.600 100.184 195.600 C 95.541 195.600,92.793 195.748,92.781 196.000 C 92.770 196.220,92.753 197.885,92.743 199.700 L 92.723 203.000 103.547 203.106 L 114.370 203.213 114.485 199.506 L 114.600 195.800 122.115 195.691 L 129.630 195.582 129.515 199.291 L 129.400 203.000 122.115 203.109 L 114.830 203.218 114.715 206.909 L 114.600 210.600 111.085 210.716 L 107.569 210.832 107.685 214.316 L 107.800 217.800 117.800 217.899 C 130.691 218.028,129.600 218.370,129.600 214.192 L 129.600 210.800 136.785 210.800 L 143.970 210.800 144.085 207.100 L 144.200 203.400 155.085 203.294 L 165.970 203.187 166.085 199.494 L 166.200 195.800 173.715 195.691 L 181.231 195.582 181.115 192.091 L 181.000 188.600 158.916 188.497 L 136.831 188.393 136.716 191.897 L 136.600 195.400 133.084 195.516 L 129.568 195.632 129.684 192.116 L 129.800 188.600 133.100 188.484 L 136.400 188.368 136.400 184.784 L 136.400 181.200 125.616 181.200 L 114.831 181.200 114.716 184.700 M268.315 192.091 L 268.431 195.582 275.715 195.691 L 283.000 195.800 283.115 199.500 L 283.230 203.200 275.815 203.200 L 268.400 203.200 268.400 199.400 L 268.400 195.600 264.800 195.600 L 261.200 195.600 261.200 191.984 L 261.200 188.369 264.700 188.484 L 268.200 188.600 268.315 192.091 " stroke="none" fill="#f3ab2b" fill-rule="evenodd"></path><path id="path4" d="M166.000 110.600 L 166.000 114.000 162.833 114.000 C 158.260 114.000,158.400 113.873,158.400 118.028 L 158.400 121.570 154.700 121.685 L 151.000 121.800 151.000 125.600 L 151.000 129.400 155.000 129.400 L 159.000 129.400 159.115 125.915 L 159.231 122.431 162.715 122.315 L 166.200 122.200 166.315 118.484 L 166.430 114.768 169.715 114.884 L 173.000 115.000 173.200 118.600 L 173.400 122.200 176.900 122.316 L 180.400 122.431 180.400 129.616 L 180.400 136.800 184.191 136.800 L 187.982 136.800 188.091 144.300 L 188.200 151.800 191.700 151.916 L 195.200 152.031 195.200 155.216 L 195.200 158.400 191.600 158.400 L 188.000 158.400 188.090 165.700 L 188.180 173.000 188.299 165.915 L 188.418 158.831 191.909 158.715 L 195.400 158.600 195.400 155.200 L 195.400 151.800 191.900 151.684 L 188.400 151.569 188.400 144.156 L 188.400 136.743 192.001 136.872 C 193.981 136.942,195.601 136.865,195.601 136.700 C 195.600 136.535,193.984 136.400,192.009 136.400 L 188.418 136.400 188.309 129.100 L 188.200 121.800 184.800 121.600 L 181.400 121.400 181.200 117.800 L 181.000 114.200 177.200 114.167 L 173.400 114.135 177.000 114.367 L 180.600 114.600 180.800 118.200 L 181.000 121.800 184.500 121.916 L 188.000 122.031 188.000 129.216 L 188.000 136.400 184.400 136.400 L 180.800 136.400 180.800 129.200 L 180.800 122.000 177.215 122.000 L 173.630 122.000 173.515 118.300 L 173.400 114.600 169.800 114.487 L 166.200 114.375 166.329 111.002 L 166.458 107.629 170.129 107.498 L 173.800 107.366 169.900 107.283 L 166.000 107.200 166.000 110.600 M224.000 110.600 L 224.000 114.000 220.680 114.000 C 216.510 114.000,216.400 114.110,216.400 118.264 L 216.400 121.569 212.900 121.702 L 209.400 121.835 213.073 121.918 C 217.345 122.013,217.315 122.044,217.163 117.864 C 217.039 114.436,217.079 114.400,221.024 114.400 L 224.400 114.400 224.400 111.015 L 224.400 107.630 228.100 107.498 L 231.800 107.366 227.900 107.283 L 224.000 107.200 224.000 110.600 M231.664 112.884 L 231.600 114.369 228.100 114.484 L 224.600 114.600 224.485 118.285 L 224.370 121.970 220.685 122.085 L 217.000 122.200 216.891 129.300 L 216.782 136.400 209.391 136.400 L 202.000 136.400 202.000 143.600 L 202.000 150.800 198.776 150.800 C 196.729 150.800,195.643 150.946,195.800 151.200 C 196.237 151.907,201.876 151.700,202.157 150.967 C 202.291 150.619,202.400 147.275,202.400 143.535 L 202.400 136.735 206.100 136.805 C 208.135 136.844,211.465 136.858,213.500 136.838 L 217.200 136.800 217.200 129.615 L 217.200 122.430 220.900 122.315 L 224.600 122.200 224.800 118.600 L 225.000 115.000 228.301 115.000 C 230.116 115.000,231.601 114.865,231.601 114.700 C 231.600 114.535,233.213 114.400,235.185 114.400 L 238.770 114.400 238.885 118.100 L 239.000 121.800 242.700 121.915 L 246.400 122.030 246.400 125.630 L 246.400 129.230 242.729 129.115 L 239.058 129.000 239.156 126.302 C 239.316 121.937,239.364 121.986,235.073 122.082 L 231.400 122.165 234.885 122.298 L 238.369 122.431 238.485 125.915 L 238.600 129.400 242.600 129.400 L 246.600 129.400 246.600 125.600 L 246.600 121.800 243.000 121.600 L 239.400 121.400 239.200 117.800 L 239.000 114.200 235.524 114.085 L 232.048 113.970 231.888 112.685 C 231.731 111.425,231.727 111.429,231.664 112.884 M166.000 118.200 L 166.000 122.000 162.400 122.000 L 158.800 122.000 158.800 125.615 L 158.800 129.230 155.100 129.115 L 151.400 129.000 151.400 125.600 L 151.400 122.200 155.000 122.000 L 158.600 121.800 158.708 118.600 C 158.857 114.176,158.650 114.400,162.587 114.400 L 166.000 114.400 166.000 118.200 M77.600 143.897 C 77.600 144.064,89.210 144.152,103.400 144.094 L 129.200 143.988 129.200 147.551 C 129.200 150.431,129.321 151.161,129.833 151.357 C 130.969 151.793,151.859 151.627,151.200 151.187 C 150.870 150.967,149.070 150.802,147.200 150.820 C 145.330 150.838,140.612 150.841,136.716 150.826 L 129.631 150.800 129.516 147.300 L 129.400 143.800 103.500 143.697 C 89.255 143.640,77.600 143.730,77.600 143.897 M268.267 143.867 C 268.120 144.013,268.000 145.633,268.000 147.467 L 268.000 150.800 260.900 150.827 C 256.995 150.842,252.356 150.832,250.591 150.805 C 245.899 150.732,246.000 150.643,246.000 154.843 L 246.000 158.400 238.800 158.400 C 234.840 158.400,231.600 158.535,231.600 158.700 C 231.599 158.865,234.929 158.947,239.000 158.883 L 246.400 158.766 246.400 155.189 L 246.400 151.613 257.300 151.506 L 268.200 151.400 268.400 147.800 L 268.600 144.200 294.400 143.996 L 320.200 143.791 294.367 143.696 C 280.158 143.643,268.413 143.720,268.267 143.867 M320.173 147.800 L 320.200 151.400 327.500 151.509 L 334.800 151.618 334.800 155.209 L 334.800 158.800 338.500 158.718 L 342.200 158.635 338.700 158.502 L 335.200 158.369 335.200 155.033 C 335.200 150.855,335.071 150.733,330.728 150.802 C 328.898 150.831,325.832 150.842,323.916 150.827 L 320.432 150.800 320.289 147.500 L 320.146 144.200 320.173 147.800 M63.100 151.234 C 62.521 151.570,62.400 152.221,62.400 155.004 L 62.400 158.368 59.100 158.484 L 55.800 158.600 55.800 177.200 L 55.800 195.800 59.100 195.916 L 62.400 196.032 62.400 199.402 C 62.400 203.462,62.550 203.600,66.974 203.600 L 70.000 203.600 70.000 207.173 L 70.000 210.745 73.801 210.873 C 75.891 210.943,77.601 210.865,77.601 210.700 C 77.600 210.535,75.980 210.400,74.000 210.400 L 70.400 210.400 70.400 207.233 C 70.400 202.670,70.515 202.800,66.457 202.800 L 63.000 202.801 63.000 199.300 L 63.000 195.800 59.500 195.684 L 56.000 195.569 56.000 177.200 L 56.000 158.831 59.500 158.716 L 63.000 158.600 63.026 155.200 L 63.051 151.800 70.015 151.690 C 73.846 151.630,77.135 151.425,77.324 151.236 C 77.820 150.740,63.955 150.738,63.100 151.234 M205.900 151.498 L 202.400 151.631 202.400 155.187 L 202.400 158.743 206.001 158.872 C 207.981 158.942,209.601 158.865,209.601 158.700 C 209.600 158.535,208.070 158.400,206.200 158.400 L 202.800 158.400 202.800 155.200 L 202.800 152.000 206.200 152.000 C 208.200 152.000,209.600 151.835,209.600 151.600 C 209.600 151.380,209.555 151.237,209.500 151.282 C 209.445 151.327,207.825 151.425,205.900 151.498 M155.100 158.698 C 157.135 158.771,160.465 158.771,162.500 158.698 C 164.535 158.625,162.870 158.566,158.800 158.566 C 154.730 158.566,153.065 158.625,155.100 158.698 M66.700 159.098 L 63.200 159.231 63.200 162.616 L 63.200 166.000 66.800 166.000 L 70.400 166.000 70.400 162.400 C 70.400 160.420,70.355 158.837,70.300 158.882 C 70.245 158.927,68.625 159.025,66.700 159.098 M166.082 162.700 L 166.000 166.400 173.384 166.400 L 180.769 166.400 180.884 169.900 L 181.000 173.400 184.600 173.434 L 188.200 173.468 184.800 173.234 L 181.400 173.000 181.284 169.500 L 181.169 166.000 173.800 166.000 L 166.431 166.000 166.298 162.500 L 166.165 159.000 166.082 162.700 M327.200 162.600 L 327.200 166.030 330.841 165.915 L 334.482 165.800 334.482 162.600 L 334.482 159.400 330.841 159.285 L 327.200 159.170 327.200 162.600 M216.667 166.267 C 216.520 166.413,216.400 168.047,216.400 169.896 L 216.400 173.259 212.999 173.129 C 211.129 173.058,209.599 173.128,209.599 173.284 C 209.600 173.441,208.025 173.621,206.100 173.684 L 202.600 173.800 202.600 177.200 L 202.600 180.600 206.100 180.716 L 209.600 180.831 209.600 177.216 L 209.600 173.600 213.173 173.600 C 217.344 173.600,217.315 173.632,217.157 169.298 L 217.058 166.600 224.429 166.386 L 231.800 166.173 224.367 166.086 C 220.278 166.039,216.813 166.120,216.667 166.267 M63.200 177.400 L 63.200 181.200 66.800 181.200 L 70.400 181.200 70.400 177.400 L 70.400 173.600 66.800 173.600 L 63.200 173.600 63.200 177.400 M188.169 174.137 C 188.055 174.433,188.016 176.008,188.081 177.637 L 188.200 180.600 191.600 180.600 L 195.000 180.600 195.116 177.100 L 195.231 173.600 191.803 173.600 C 189.302 173.600,188.319 173.745,188.169 174.137 M327.285 177.300 L 327.400 181.000 330.938 181.000 L 334.476 181.000 334.457 177.700 C 334.447 175.885,334.430 174.220,334.419 174.000 C 334.408 173.764,332.916 173.600,330.785 173.600 L 327.170 173.600 327.285 177.300 M70.586 189.312 C 70.460 189.814,70.412 191.389,70.479 192.812 L 70.600 195.400 74.300 195.515 L 78.000 195.630 78.000 192.015 L 78.000 188.400 74.408 188.400 C 71.001 188.400,70.803 188.447,70.586 189.312 M319.775 188.922 C 319.658 189.226,319.616 190.808,319.681 192.437 L 319.800 195.400 323.516 195.515 L 327.232 195.630 327.116 192.115 L 327.000 188.600 323.493 188.484 C 320.797 188.395,319.938 188.496,319.775 188.922 M334.800 199.200 L 334.800 202.800 331.424 202.800 C 329.567 202.800,327.936 202.980,327.800 203.200 C 327.529 203.639,333.474 203.777,334.567 203.357 C 335.078 203.161,335.200 202.433,335.200 199.573 L 335.200 196.031 338.700 195.898 L 342.200 195.765 338.500 195.682 L 334.800 195.600 334.800 199.200 M78.085 206.884 L 78.200 210.600 81.600 210.600 L 85.000 210.600 85.000 207.000 L 85.000 203.400 81.485 203.284 L 77.970 203.168 78.085 206.884 M312.782 203.400 C 312.772 203.510,312.756 205.175,312.747 207.100 L 312.729 210.600 316.365 210.600 L 320.001 210.600 320.001 214.091 L 320.000 217.582 312.700 217.691 L 305.400 217.800 305.285 221.285 L 305.169 224.769 301.685 224.885 L 298.200 225.000 298.085 228.691 L 297.970 232.382 290.685 232.491 L 283.400 232.600 283.294 243.500 L 283.187 254.400 279.594 254.400 L 276.000 254.400 276.090 261.700 L 276.180 269.000 276.299 261.900 L 276.418 254.800 280.003 254.800 L 283.587 254.800 283.694 243.900 L 283.800 233.000 291.000 232.800 L 298.200 232.600 298.316 229.100 L 298.431 225.600 301.383 225.600 C 305.713 225.600,305.600 225.708,305.600 221.566 L 305.600 218.018 312.900 217.909 L 320.200 217.800 320.316 214.300 L 320.431 210.800 324.116 210.723 L 327.800 210.645 323.800 210.423 L 319.800 210.200 319.684 206.700 L 319.569 203.200 316.184 203.200 C 314.323 203.200,312.792 203.290,312.782 203.400 M92.667 211.067 C 92.520 211.213,92.400 212.740,92.400 214.459 C 92.400 218.116,92.403 218.119,97.008 217.920 L 99.800 217.800 99.916 214.300 L 100.031 210.800 96.482 210.800 C 94.530 210.800,92.813 210.920,92.667 211.067 M297.600 214.192 C 297.600 218.155,297.558 218.121,302.208 217.920 L 305.000 217.800 305.116 214.300 L 305.231 210.800 301.416 210.800 L 297.600 210.800 297.600 214.192 M77.599 217.700 C 77.600 217.865,80.840 218.000,84.800 218.000 L 92.000 218.000 92.000 221.573 C 92.000 225.746,91.957 225.707,96.338 225.565 C 97.844 225.516,99.329 225.629,99.638 225.815 C 100.117 226.103,100.119 226.053,99.651 225.477 C 99.215 224.939,98.417 224.800,95.767 224.800 L 92.431 224.800 92.316 221.300 L 92.200 217.800 84.899 217.600 C 80.884 217.490,77.599 217.535,77.599 217.700 M195.691 225.100 L 195.800 232.200 198.800 232.200 L 201.800 232.200 201.909 225.100 L 202.018 218.000 198.800 218.000 L 195.582 218.000 195.691 225.100 M99.600 232.500 C 99.600 232.665,102.840 232.800,106.800 232.800 L 114.000 232.800 114.062 235.100 C 114.096 236.365,114.149 240.640,114.179 244.600 C 114.209 248.560,114.271 252.475,114.317 253.300 L 114.400 254.800 117.720 254.800 C 119.841 254.800,121.222 254.981,121.544 255.300 C 121.948 255.701,121.995 255.661,121.781 255.100 C 121.556 254.510,120.986 254.400,118.157 254.400 L 114.800 254.400 114.717 253.100 C 114.671 252.385,114.609 248.560,114.579 244.600 C 114.549 240.640,114.496 236.283,114.462 234.917 L 114.400 232.434 107.000 232.317 C 102.929 232.253,99.599 232.335,99.600 232.500 M195.600 243.100 L 195.601 247.000 191.800 246.861 L 188.000 246.723 188.000 250.546 L 188.000 254.369 184.500 254.484 L 181.000 254.600 180.891 261.900 L 180.782 269.200 177.471 269.200 C 173.339 269.200,173.200 269.333,173.200 273.280 L 173.200 276.400 151.400 276.400 L 129.600 276.400 129.600 273.249 C 129.600 271.209,129.423 269.951,129.098 269.681 C 128.519 269.201,121.598 268.849,121.599 269.300 C 121.600 269.465,123.220 269.600,125.200 269.600 C 127.801 269.600,128.806 269.739,128.823 270.100 C 128.836 270.375,128.881 271.950,128.923 273.600 L 129.000 276.600 151.284 276.703 L 173.569 276.807 173.684 273.303 L 173.800 269.800 177.491 269.685 L 181.182 269.570 181.291 262.285 L 181.400 255.000 184.800 254.800 L 188.200 254.600 188.316 251.100 L 188.431 247.600 191.416 247.600 C 193.057 247.600,194.535 247.598,194.700 247.595 C 194.865 247.593,195.090 249.078,195.200 250.895 L 195.400 254.200 199.000 254.200 L 202.600 254.200 202.716 250.900 L 202.832 247.600 205.916 247.553 C 207.612 247.527,209.243 247.539,209.540 247.579 C 209.837 247.620,209.962 247.461,209.817 247.227 C 209.515 246.739,203.660 246.647,202.918 247.118 C 202.627 247.304,202.390 248.684,202.318 250.612 L 202.200 253.800 198.900 253.916 L 195.600 254.032 195.600 250.616 L 195.600 247.200 198.800 247.200 L 202.000 247.200 202.000 243.200 L 202.000 239.200 198.800 239.200 L 195.600 239.200 195.600 243.100 M122.169 240.537 C 122.055 240.833,122.016 242.408,122.081 244.037 L 122.200 247.000 129.300 247.109 L 136.400 247.218 136.400 243.609 L 136.400 240.000 129.387 240.000 C 123.886 240.000,122.330 240.116,122.169 240.537 M261.200 243.600 L 261.200 247.200 268.400 247.200 L 275.600 247.200 275.600 243.600 L 275.600 240.000 268.400 240.000 L 261.200 240.000 261.200 243.600 M133.100 254.698 L 129.600 254.831 129.600 258.431 L 129.600 262.031 133.033 261.916 L 136.467 261.800 136.533 258.100 C 136.570 256.065,136.600 254.437,136.600 254.482 C 136.600 254.527,135.025 254.625,133.100 254.698 M212.891 254.698 L 216.382 254.831 216.491 262.115 L 216.600 269.400 220.400 269.433 L 224.200 269.465 220.662 269.233 L 217.123 269.000 217.178 262.375 C 217.249 253.819,217.542 254.381,213.057 254.482 L 209.400 254.565 212.891 254.698 M261.200 258.384 L 261.200 262.000 264.816 262.000 L 268.431 262.000 268.316 258.500 L 268.200 255.000 264.700 254.884 L 261.200 254.769 261.200 258.384 M268.667 269.467 C 268.520 269.613,268.400 271.233,268.400 273.067 L 268.400 276.400 246.416 276.400 L 224.432 276.400 224.298 273.100 L 224.163 269.800 224.081 273.303 L 224.000 276.807 246.300 276.703 L 268.600 276.600 268.800 273.200 L 269.000 269.800 272.600 269.576 L 276.200 269.351 272.567 269.276 C 270.568 269.234,268.813 269.320,268.667 269.467 " stroke="none" fill="#9664b9" fill-rule="evenodd"></path></g></svg>