<?xml version="1.0" standalone="no"?>
<!DOCTYPE svg PUBLIC "-//W3C//DTD SVG 20010904//EN"
 "http://www.w3.org/TR/2001/REC-SVG-20010904/DTD/svg10.dtd">
<svg version="1.0" xmlns="http://www.w3.org/2000/svg"
 width="800.000000pt" height="800.000000pt" viewBox="0 0 800.000000 800.000000"
 preserveAspectRatio="xMidYMid meet">

<g transform="translate(0.000000,800.000000) scale(0.100000,-0.100000)"
fill="#000000" stroke="none">
<path d="M3320 5780 l0 -70 -75 0 -75 0 0 -72 0 -73 -50 3 c-28 2 -62 1 -76
-2 -24 -6 -25 -9 -22 -79 l3 -72 78 -3 77 -3 0 76 0 75 70 0 70 0 0 75 0 76
73 -3 72 -3 3 -72 3 -73 69 0 70 0 0 -145 0 -145 75 0 75 0 0 151 0 150 -67
-2 -68 -3 -3 72 -3 72 -74 0 -75 0 0 70 0 70 -75 0 -75 0 0 -70z"/>
<path d="M4480 5780 l0 -70 -70 0 -69 0 -3 -71 -3 -72 -70 -1 -70 -1 -3 -147
-3 -147 -72 -3 -72 -3 -3 -145 -2 -145 -63 1 -62 2 -3 146 -3 147 -72 -3 -72
-3 -3 -147 -3 -147 73 -3 73 -3 3 -67 3 -67 -73 -3 -73 -3 -3 -147 -3 -148
-69 0 -70 0 0 75 0 75 -150 0 -150 0 0 75 0 75 -145 0 -144 0 -3 73 -3 72
-215 2 -215 2 -3 70 -3 71 -519 0 -520 0 0 -72 0 -73 -142 0 -143 0 -3 -72 -3
-73 -69 0 -70 0 0 -370 0 -369 68 -3 67 -3 3 -72 3 -73 69 0 70 0 0 -75 0 -75
75 0 74 0 3 -72 3 -73 145 -2 145 -1 3 -71 3 -71 69 0 70 0 0 -75 0 -74 148
-3 147 -3 3 -217 2 -218 70 0 69 0 3 -147 3 -148 75 -5 75 -5 3 -67 3 -68 439
0 440 0 0 70 0 70 75 0 75 0 0 150 0 150 70 0 70 0 0 75 0 76 73 -3 72 -3 3
-67 3 -68 69 0 70 0 0 70 0 70 70 0 70 0 0 -75 0 -74 73 -3 72 -3 3 -147 3
-148 69 0 70 0 0 -70 0 -70 445 0 445 0 0 70 0 70 75 0 75 0 0 150 0 150 75 0
75 0 0 220 0 220 145 0 145 0 0 75 0 75 75 0 75 0 0 70 0 70 145 0 145 0 0 75
0 75 75 0 75 0 0 75 0 75 75 0 75 0 0 75 0 75 70 0 70 0 0 370 0 370 -70 0
-69 0 -3 73 -3 72 -145 1 -145 2 -3 71 -3 71 -514 0 -514 0 -3 -71 -3 -71
-208 1 c-114 0 -214 -2 -222 -5 -11 -5 -15 -23 -15 -75 l0 -68 -142 -3 -143
-3 -3 -72 -3 -73 -144 0 -144 0 -3 -72 -3 -73 -72 -3 -73 -3 0 151 0 150 -70
0 -70 0 0 70 0 70 70 0 70 0 0 150 0 150 75 0 75 0 0 145 0 145 75 0 75 0 0
75 0 75 70 0 70 0 0 -75 0 -74 73 -3 72 -3 3 -72 3 -73 75 0 75 0 -3 78 -3 77
-70 1 -70 1 -3 71 -3 71 -72 3 -72 3 -3 68 -3 67 -74 0 -75 0 0 -70z m-2780
-1105 l0 -145 -145 0 -145 0 0 70 0 70 75 0 75 0 0 68 c0 38 3 72 7 75 3 4 35
7 70 7 l63 0 0 -145z m1332 73 l3 -73 142 -3 142 -3 3 -72 3 -72 148 -3 147
-3 0 -69 0 -70 -445 0 -445 0 0 75 0 75 -145 0 -145 0 0 138 c0 76 3 142 7
145 3 4 136 7 294 7 l288 0 3 -72z m2478 -73 l0 -145 -145 0 -145 0 0 -75 0
-75 -440 0 -440 0 0 70 0 70 145 0 145 0 0 75 0 74 147 3 147 3 -3 62 c-1 35
0 67 4 73 4 6 110 10 296 10 l289 0 0 -145z m882 73 l3 -73 73 -3 72 -3 0 -69
0 -70 -145 0 -145 0 0 138 c0 76 3 142 7 145 3 4 35 7 69 7 l63 0 3 -72z
m-4102 -298 l0 -70 -145 0 -145 0 0 -75 0 -76 -147 3 -148 3 -3 68 -3 67 76 0
75 0 0 75 0 75 220 0 220 0 0 -70z m3812 -2 l3 -73 73 -3 72 -3 0 -70 0 -70
-147 3 -148 3 -1 70 -1 70 -147 3 -146 3 0 69 0 70 220 0 219 0 3 -72z m-3372
-149 l0 -69 -70 0 -70 0 0 -70 0 -70 -150 0 -150 0 0 -75 0 -75 -220 0 -220 0
0 70 0 70 150 0 149 0 3 73 3 72 68 3 67 3 0 69 0 69 143 3 c78 2 177 2 220 0
l77 -4 0 -69z m2863 71 l67 0 0 -70 0 -70 70 0 69 0 3 -72 3 -73 148 -3 147
-3 0 -69 0 -70 -220 0 -220 0 0 75 0 75 -145 0 -145 0 0 70 0 69 -72 3 -73 3
-3 67 -3 67 73 3 c40 2 109 2 153 1 44 -1 110 -2 148 -3z m-1973 -210 l0 -70
-150 0 -150 0 0 -75 0 -75 -220 0 -220 0 0 -75 0 -75 -145 0 -145 0 0 -70 0
-70 -220 0 -220 0 0 65 0 65 70 0 70 0 0 75 0 74 148 3 147 3 3 73 3 72 69 0
70 0 0 68 c0 38 3 72 7 75 3 4 204 7 445 7 l438 0 0 -70z m1602 -2 l3 -73 67
-3 67 -3 3 -72 3 -72 147 -3 147 -3 3 -72 3 -72 68 -3 67 -3 0 -64 0 -65 -215
0 -215 0 0 70 0 70 -150 0 -150 0 0 75 0 75 -220 0 -220 0 0 75 0 75 -145 0
-145 0 0 70 0 70 440 0 439 0 3 -72z"/>
</g>
</svg>
